<?xml version="1.0" standalone="no"?>
<!DOCTYPE svg PUBLIC "-//W3C//DTD SVG 20010904//EN"
 "http://www.w3.org/TR/2001/REC-SVG-20010904/DTD/svg10.dtd">
<svg version="1.0" xmlns="http://www.w3.org/2000/svg"
 width="1903.000000pt" height="679.000000pt" viewBox="0 0 1903.000000 679.000000"
 preserveAspectRatio="xMidYMid meet">
<metadata>
Created by potrace 1.16, written by Peter Selinger 2001-2019
</metadata>
<g transform="translate(0.000000,679.000000) scale(0.100000,-0.100000)"
fill="#000000" stroke="none">
<path d="M5250 3395 l0 -3395 70 0 70 0 0 3395 0 3395 -70 0 -70 0 0 -3395z"/>
<path d="M7115 6153 c-26 -76 -52 -144 -58 -150 -5 -7 -7 -13 -3 -13 5 0 -17
-67 -54 -165 -4 -11 -9 -24 -10 -30 -2 -9 -41 -120 -60 -170 -4 -11 -8 -22 -8
-25 0 -3 -10 -30 -22 -60 -30 -75 -52 -149 -46 -158 2 -4 49 -6 103 -4 l100 3
23 82 c40 140 18 127 206 127 l163 0 32 -105 32 -105 104 0 c56 0 103 1 103 3
0 8 -33 104 -59 175 -17 45 -28 82 -25 82 4 0 2 6 -3 13 -9 11 -111 290 -117
320 -2 7 -8 23 -13 37 -14 34 -63 170 -62 173 0 1 -4 14 -10 30 -34 86 -17 77
-149 77 l-119 0 -48 -137z m229 -210 c31 -101 56 -184 56 -185 0 -3 -230 -4
-230 -2 0 0 25 83 55 184 30 101 55 186 55 188 0 17 14 -23 64 -185z"/>
<path d="M8695 6153 c-26 -76 -52 -144 -58 -150 -5 -7 -7 -13 -3 -13 5 0 -17
-67 -54 -165 -4 -11 -9 -24 -10 -30 -2 -9 -41 -120 -60 -170 -4 -11 -8 -22 -8
-25 0 -3 -10 -30 -22 -60 -30 -75 -52 -149 -46 -158 2 -4 49 -6 103 -4 l100 3
23 82 c40 140 18 127 206 127 l163 0 32 -105 32 -105 104 0 c56 0 103 1 103 3
0 8 -33 104 -59 175 -17 45 -28 82 -25 82 4 0 2 6 -3 13 -9 11 -111 290 -117
320 -2 7 -8 23 -13 37 -14 34 -63 170 -62 173 0 1 -4 14 -10 30 -34 86 -17 77
-149 77 l-119 0 -48 -137z m229 -210 c31 -101 56 -184 56 -185 0 -3 -230 -4
-230 -2 0 0 25 83 55 184 30 101 55 186 55 188 0 17 14 -23 64 -185z"/>
<path d="M6140 5829 l0 -451 223 4 c198 3 228 6 275 25 78 32 116 65 149 132
26 53 28 65 23 127 -9 92 -37 136 -106 165 l-52 22 41 22 c58 30 100 103 98
170 -2 69 -3 74 -31 123 -17 31 -38 49 -74 67 -76 37 -139 45 -352 45 l-194 0
0 -451z m395 277 c37 -16 55 -42 55 -81 0 -67 -49 -95 -170 -95 l-80 0 0 28
c0 15 -3 57 -7 95 l-6 67 87 0 c52 0 100 -6 121 -14z m9 -350 c98 -41 83 -176
-22 -206 -20 -5 -70 -10 -109 -10 l-73 0 0 48 c0 26 -3 77 -7 115 l-6 67 92 0
c56 0 105 -5 125 -14z"/>
<path d="M7830 5830 l0 -450 279 0 279 0 4 64 c5 104 21 96 -183 96 l-179 0 0
370 0 370 -100 0 -100 0 0 -450z"/>
<path d="M9410 5830 l0 -450 100 0 100 0 0 450 0 450 -100 0 -100 0 0 -450z"/>
<path d="M2270 6206 c-121 -34 -236 -136 -279 -246 -14 -34 -26 -72 -27 -84
-7 -63 -4 -147 9 -193 13 -51 66 -147 99 -183 9 -10 14 -21 10 -26 -4 -4 -1
-4 5 0 7 4 34 -10 64 -34 28 -22 55 -38 60 -34 5 3 9 0 9 -6 0 -6 6 -10 13 -9
6 2 37 -2 67 -9 83 -16 120 -20 126 -10 3 4 17 8 32 8 15 0 46 9 69 19 23 11
44 17 47 13 3 -3 6 0 6 6 0 6 9 14 21 17 33 11 97 73 140 137 22 32 38 58 35
58 -2 0 4 22 13 48 44 119 2 305 -89 400 -71 74 -96 91 -175 117 -82 28 -179
32 -255 11z"/>
<path d="M1423 5695 c-82 -18 -158 -65 -213 -132 -78 -94 -106 -178 -98 -288
10 -118 30 -145 302 -419 241 -242 248 -248 302 -261 30 -7 57 -9 59 -5 3 5
20 12 37 15 18 4 37 13 44 19 135 126 330 330 345 358 29 56 25 124 -10 179
-35 54 -442 457 -492 487 -86 52 -182 68 -276 47z"/>
<path d="M3170 5700 c-60 -11 -97 -25 -145 -58 -21 -15 -293 -280 -602 -589
-587 -587 -581 -581 -633 -553 -11 6 -21 6 -25 1 -3 -5 4 -12 15 -16 11 -3 20
-13 20 -21 0 -8 3 -13 8 -12 11 4 342 -324 336 -334 -3 -4 -1 -8 4 -8 6 0 36
-25 69 -56 59 -57 99 -80 143 -85 30 -3 80 10 97 25 65 60 1071 1070 1092
1096 57 73 69 112 67 223 -2 115 -2 116 -36 173 -95 158 -254 241 -410 214z"/>
<path d="M810 5101 c-93 -29 -208 -128 -254 -219 -28 -54 -49 -191 -35 -228
29 -81 55 -140 68 -155 9 -9 267 -269 575 -578 495 -497 559 -564 563 -596 3
-22 0 -42 -9 -52 -10 -12 -10 -15 -1 -12 27 9 506 495 520 528 19 44 19 101 0
137 -9 16 -267 279 -574 585 -526 525 -561 558 -616 578 -60 22 -184 28 -237
12z"/>
<path d="M3720 5101 c-78 -25 -127 -66 -347 -284 -128 -127 -240 -247 -250
-266 -22 -47 -24 -107 -4 -149 9 -19 92 -109 185 -200 207 -205 196 -195 196
-188 0 3 12 1 28 -5 15 -6 50 -8 80 -4 l53 7 244 244 c262 261 285 291 305
402 13 73 0 163 -32 226 -32 62 -134 163 -197 193 -45 23 -71 28 -145 30 -50
1 -102 -1 -116 -6z"/>
<path d="M14570 4570 c-86 -11 -129 -27 -192 -74 -110 -80 -164 -219 -153
-396 9 -160 40 -251 111 -330 93 -102 276 -146 445 -106 184 43 299 212 301
444 0 53 -2 104 -5 112 -3 8 -11 40 -18 70 -14 62 -58 140 -104 182 -86 80
-230 117 -385 98z m207 -192 c143 -94 131 -456 -17 -538 -62 -33 -157 -34
-216 -1 -84 47 -117 138 -111 311 3 113 20 162 69 206 48 44 79 54 159 52 62
-3 82 -8 116 -30z"/>
<path d="M17158 4569 c-69 -8 -160 -50 -188 -87 -11 -15 -24 -32 -29 -38 -16
-20 -30 -117 -22 -159 19 -104 80 -169 228 -244 105 -53 139 -79 154 -118 12
-32 1 -76 -18 -69 -8 3 -11 1 -8 -4 4 -6 -11 -18 -32 -26 -52 -22 -135 -13
-247 26 -48 17 -90 29 -93 27 -2 -3 -1 -43 3 -90 l7 -85 36 -16 c61 -26 157
-39 251 -34 151 9 241 69 284 188 21 57 22 67 10 116 -24 105 -72 152 -239
238 -100 50 -125 68 -125 85 0 6 -4 11 -9 11 -16 0 -20 29 -9 60 25 73 149 79
299 16 12 -5 20 3 33 33 9 23 21 41 27 41 5 0 7 5 4 10 -3 6 -2 10 2 10 5 0 9
12 8 28 0 25 -6 29 -80 53 -88 30 -161 38 -247 28z"/>
<path d="M8505 4433 c-26 -76 -52 -144 -58 -150 -5 -7 -7 -13 -3 -13 5 0 -17
-67 -54 -165 -4 -11 -9 -24 -10 -30 -2 -9 -41 -120 -60 -170 -4 -11 -8 -22 -8
-25 0 -3 -10 -30 -22 -60 -23 -57 -50 -139 -50 -152 0 -5 47 -8 103 -8 l104 0
22 78 c12 42 27 89 33 105 l10 27 164 0 163 0 32 -105 32 -105 104 0 c57 0
103 1 103 3 0 8 -33 104 -59 175 -17 45 -28 82 -25 82 4 0 2 6 -3 13 -9 11
-111 290 -117 320 -2 7 -8 23 -13 37 -14 34 -63 170 -62 173 0 1 -4 14 -10 30
-34 86 -17 77 -149 77 l-119 0 -48 -137z m229 -212 c31 -101 55 -184 54 -185
-2 -1 -47 0 -101 2 -86 3 -98 6 -93 20 4 10 -3 6 -14 -8 -11 -14 -20 -22 -20
-19 0 3 25 88 55 189 30 101 55 186 55 188 0 17 14 -23 64 -187z"/>
<path d="M11385 4433 c-26 -76 -52 -144 -58 -150 -5 -7 -7 -13 -3 -13 5 0 -17
-67 -54 -165 -4 -11 -9 -24 -10 -30 -2 -9 -41 -120 -60 -170 -4 -11 -8 -22 -8
-25 0 -3 -10 -30 -22 -60 -23 -57 -50 -139 -50 -152 0 -5 47 -8 103 -8 l104 0
22 78 c12 42 27 89 33 105 l10 27 164 0 163 0 32 -105 32 -105 104 0 c57 0
103 1 103 3 0 8 -33 104 -59 175 -17 45 -28 82 -25 82 4 0 2 6 -3 13 -9 11
-111 290 -117 320 -2 7 -8 23 -13 37 -14 34 -63 170 -62 173 0 1 -4 14 -10 30
-34 86 -17 77 -149 77 l-119 0 -48 -137z m229 -212 c31 -101 55 -184 54 -185
-2 -1 -47 0 -101 2 -86 3 -98 6 -93 20 4 10 -3 6 -14 -8 -11 -14 -20 -22 -20
-19 0 3 25 88 55 189 30 101 55 186 55 188 0 17 14 -23 64 -187z"/>
<path d="M16245 4433 c-26 -76 -52 -144 -58 -150 -5 -7 -7 -13 -3 -13 5 0 -17
-67 -54 -165 -4 -11 -9 -24 -10 -30 -3 -13 -49 -142 -63 -175 -5 -14 -11 -31
-13 -39 -1 -7 -12 -39 -24 -70 -12 -31 -27 -69 -33 -85 l-11 -29 -10 24 c-6
13 -13 26 -16 29 -8 7 -180 280 -180 286 0 2 -23 36 -51 74 l-50 70 126 161
c70 88 136 166 146 172 11 7 19 16 19 21 0 5 7 18 17 28 15 17 12 18 -98 18
l-114 0 -57 -72 c-31 -40 -65 -82 -75 -93 -10 -11 -30 -36 -44 -55 -15 -19
-35 -45 -45 -57 -20 -22 -32 -39 -64 -88 l-20 -30 0 198 0 197 -100 0 -100 0
0 -450 0 -450 99 0 100 0 3 125 c2 69 0 125 -4 125 -5 0 -8 15 -8 34 0 29 7
39 42 65 l41 30 117 -187 117 -187 210 -3 210 -2 22 77 c12 43 27 90 33 106
l10 27 164 0 163 0 32 -105 32 -105 104 0 c57 0 103 1 103 3 0 8 -33 104 -59
175 -17 45 -28 82 -25 82 4 0 2 6 -3 13 -9 11 -111 290 -117 320 -2 7 -8 23
-13 37 -14 34 -63 170 -62 173 0 1 -4 14 -10 30 -34 86 -17 77 -149 77 l-119
0 -48 -137z m229 -212 c31 -101 55 -184 54 -185 -2 -1 -47 0 -101 2 -86 3 -98
6 -93 20 4 10 -3 6 -14 -8 -11 -14 -20 -22 -20 -19 0 3 25 88 55 189 30 101
55 186 55 188 0 17 14 -23 64 -187z"/>
<path d="M6140 4111 l0 -451 101 0 102 0 -6 159 -5 159 96 4 c55 3 120 13 150
23 61 21 134 81 152 125 7 16 17 30 22 30 5 0 7 4 4 8 -2 4 0 30 6 57 8 36 7
68 -2 118 -16 89 -55 141 -135 182 l-60 30 -212 3 -213 4 0 -451z m365 275
c40 -17 65 -60 65 -115 0 -31 -7 -48 -33 -75 -36 -40 -79 -56 -149 -56 l-48 0
0 69 c0 37 -3 96 -6 130 l-7 61 72 0 c39 0 87 -6 106 -14z"/>
<path d="M6930 4110 l0 -450 262 2 263 3 0 60 c1 103 14 95 -166 95 l-159 0 0
54 c0 29 -3 81 -6 115 l-7 62 159 -3 159 -3 -2 60 c0 33 -2 70 -2 83 -1 22 -2
22 -151 22 l-150 0 0 34 c0 18 -3 61 -6 95 l-7 62 166 -3 c189 -3 173 -12 172
92 l0 65 -262 3 -263 2 0 -450z"/>
<path d="M7640 4110 l0 -450 279 0 279 0 4 64 c5 104 21 96 -183 96 l-179 0 0
370 0 370 -100 0 -100 0 0 -450z"/>
<path d="M9036 4533 c3 -16 7 -50 8 -78 l3 -50 122 -3 121 -3 0 -369 0 -370
98 0 97 0 0 325 c0 282 2 325 15 329 12 3 11 4 -2 5 -14 1 -18 10 -18 41 l0
40 125 0 125 0 0 80 0 80 -349 0 -350 0 5 -27z"/>
<path d="M9860 4110 l0 -450 100 0 100 0 0 450 0 450 -100 0 -100 0 0 -450z"/>
<path d="M10270 4110 l0 -450 101 0 102 0 -5 195 -5 195 178 0 179 0 0 -195 0
-195 95 0 95 0 0 450 0 450 -100 0 c-55 0 -100 -3 -101 -7 -4 -45 -3 -80 4
-76 4 2 7 -57 7 -131 l0 -136 -175 0 -175 0 0 175 0 175 -100 0 -100 0 0 -450z"/>
<path d="M12100 4110 l0 -450 90 0 90 0 1 43 c3 215 -2 446 -11 529 -6 55 -9
102 -7 104 4 4 299 -503 367 -628 l25 -48 125 0 125 0 -1 438 c-1 240 -2 443
-3 450 -1 8 -26 12 -89 12 l-89 0 4 -212 c2 -117 5 -268 6 -335 2 -68 2 -123
1 -123 -1 0 -14 26 -30 58 -16 31 -31 59 -35 62 -3 3 -19 30 -35 60 -16 30
-31 57 -34 60 -12 11 -210 360 -210 370 0 5 -4 10 -8 10 -5 0 -14 11 -20 25
-11 25 -13 25 -137 25 l-125 0 0 -450z"/>
<path d="M13343 4538 c1 -13 8 -33 15 -44 10 -20 130 -368 239 -697 l46 -138
105 3 106 3 113 335 c62 184 131 383 153 441 22 58 40 109 40 112 0 4 -44 7
-98 7 -96 0 -99 -1 -110 -25 -7 -14 -12 -32 -12 -40 0 -8 -5 -15 -11 -15 -5 0
-7 -5 -4 -10 4 -6 2 -16 -3 -23 -6 -7 -10 -15 -10 -20 -1 -22 -16 -74 -26 -86
-6 -8 -10 -16 -9 -17 6 -9 -10 -64 -18 -64 -5 0 -6 -6 -3 -14 3 -8 0 -17 -5
-21 -6 -3 -9 -10 -6 -15 3 -5 1 -19 -4 -32 -12 -29 -23 -60 -27 -73 -28 -97
-45 -158 -55 -195 l-11 -45 -19 75 c-11 41 -21 82 -23 90 -2 8 -8 27 -14 41
-10 25 -32 102 -36 124 -1 6 -5 16 -9 23 -5 6 -5 17 -2 22 3 6 2 10 -3 10 -5
0 -12 10 -15 23 -3 12 -13 47 -22 77 -9 30 -17 60 -19 65 -2 6 -8 22 -14 36
-6 15 -16 45 -22 68 l-11 41 -100 0 c-98 0 -100 0 -96 -22z"/>
<path d="M17650 4110 l0 -450 100 0 100 0 0 450 0 450 -100 0 -100 0 0 -450z"/>
<path d="M2762 4207 c-212 -212 -255 -260 -271 -302 -14 -36 -16 -56 -10 -74
5 -13 7 -26 5 -28 -7 -7 36 -53 323 -339 145 -145 259 -264 255 -264 -5 -1 4
-8 19 -16 15 -8 25 -19 22 -24 -3 -5 3 -11 13 -14 21 -7 162 -151 162 -166 0
-5 5 -10 11 -10 16 0 119 -101 113 -111 -3 -5 -1 -9 5 -9 5 0 48 -37 95 -82
105 -103 144 -137 150 -131 2 2 17 -2 33 -10 26 -14 63 -21 148 -31 17 -2 48
2 70 9 21 8 42 12 47 9 4 -3 8 -1 8 3 0 5 25 21 55 37 30 15 55 31 55 34 0 4
25 33 54 64 29 31 51 60 48 63 -3 3 0 5 6 5 7 0 11 3 10 8 -4 14 14 72 22 72
7 0 5 156 -4 195 -4 23 -40 86 -68 125 -11 14 -269 275 -574 581 -305 305
-551 558 -548 562 4 4 2 7 -4 7 -15 0 -16 42 -1 57 6 6 10 16 8 22 -2 6 -118
-103 -257 -242z"/>
<path d="M4243 4290 c-176 -26 -325 -175 -354 -353 -15 -88 11 -239 47 -274 8
-8 12 -18 10 -22 -3 -4 6 -15 20 -25 13 -11 24 -25 24 -32 0 -8 3 -14 8 -14 6
0 22 -13 92 -72 8 -7 15 -11 15 -9 0 2 30 -6 68 -18 73 -25 176 -30 236 -12
19 6 37 8 42 6 4 -3 10 -1 14 5 4 6 28 21 53 34 58 29 134 109 164 170 12 25
26 46 31 46 4 0 6 4 3 8 -3 4 -1 27 5 50 14 66 13 153 -4 206 -9 27 -14 53
-11 58 3 4 0 8 -6 8 -6 0 -8 5 -5 10 3 6 2 10 -2 10 -5 0 -17 14 -27 31 -79
134 -256 213 -423 189z"/>
<path d="M352 4259 c-115 -20 -234 -103 -294 -207 -18 -31 -33 -59 -33 -62 -1
-3 -7 -38 -15 -77 -11 -62 -11 -84 1 -145 7 -40 14 -77 14 -83 0 -5 2 -12 5
-15 11 -11 70 -101 70 -108 1 -12 101 -86 140 -103 76 -33 237 -57 257 -38 5
4 24 9 44 12 20 2 61 21 92 41 32 19 57 34 57 32 0 -2 16 12 35 31 19 19 35
38 35 41 0 3 9 15 19 26 32 35 73 173 72 241 -2 66 -5 90 -16 120 -80 216
-269 330 -483 294z"/>
<path d="M2295 3726 c-45 -21 -1118 -1102 -1144 -1153 -44 -89 -54 -173 -30
-255 10 -32 15 -58 12 -58 -2 0 5 -13 16 -29 12 -16 21 -32 21 -35 0 -16 143
-146 161 -146 5 0 8 -4 5 -8 -2 -4 7 -9 21 -10 13 -1 30 -5 36 -9 24 -15 187
-25 187 -12 0 5 3 8 8 7 8 -1 46 14 101 39 19 10 288 271 608 590 535 534 576
573 608 573 18 0 37 -4 40 -10 3 -5 12 -10 18 -10 16 0 -491 508 -525 526 -34
18 -103 18 -143 0z"/>
<path d="M1084 3696 c-37 -16 -473 -449 -508 -504 -38 -61 -58 -131 -57 -202
1 -64 27 -160 50 -183 6 -6 11 -15 11 -21 0 -16 96 -104 153 -140 29 -19 69
-37 88 -40 63 -10 153 -8 182 3 16 6 32 9 37 6 5 -3 10 -2 12 3 1 4 22 19 45
32 24 14 148 130 277 259 196 195 236 240 246 275 11 42 10 126 -2 126 -4 0
-10 9 -13 20 -9 30 -324 338 -367 361 -43 22 -109 24 -154 5z"/>
<path d="M2915 3108 c-39 -14 -359 -330 -382 -377 -24 -49 -24 -128 -1 -166
33 -55 457 -473 517 -509 68 -41 207 -66 253 -44 9 5 28 9 42 10 15 1 26 6 26
9 0 4 15 12 34 19 19 6 59 38 93 73 59 62 109 127 98 127 -3 0 2 14 10 31 22
41 22 179 1 237 -8 23 -13 42 -11 42 11 0 -47 62 -273 291 -191 193 -252 249
-282 258 -45 13 -85 13 -125 -1z"/>
<path d="M11225 2863 c-115 -10 -221 -61 -278 -134 -68 -87 -93 -172 -91 -319
3 -258 95 -400 295 -456 82 -23 231 -15 314 16 75 29 163 114 195 188 12 28
26 50 30 47 5 -3 6 4 3 15 -3 11 -1 26 4 33 15 18 16 217 3 284 -33 163 -133
275 -275 311 -50 13 -147 20 -200 15z m149 -177 c91 -38 130 -125 131 -291 0
-107 -1 -112 -35 -175 -46 -85 -95 -114 -190 -114 -69 0 -98 11 -143 53 -59
54 -70 93 -71 266 0 106 2 125 22 162 23 45 77 94 114 105 42 11 138 8 172 -6z"/>
<path d="M18684 2859 c-66 -8 -127 -34 -167 -71 -31 -29 -67 -96 -67 -125 0
-12 -4 -33 -10 -47 -6 -17 -6 -26 0 -26 6 0 10 -9 10 -20 0 -37 41 -108 85
-149 24 -22 85 -61 136 -86 118 -60 146 -81 159 -120 10 -32 -3 -96 -16 -82
-4 3 -13 0 -21 -8 -37 -37 -158 -28 -283 21 -39 15 -73 24 -76 21 -4 -3 -3
-45 2 -93 l9 -88 55 -20 c82 -30 296 -29 361 1 61 28 115 77 141 127 30 58 30
165 0 221 -39 72 -57 86 -211 165 -145 74 -165 96 -148 162 18 70 150 76 298
14 12 -5 20 2 30 26 7 18 16 35 19 38 13 10 32 69 25 79 -9 16 -162 59 -220
63 -27 2 -78 1 -111 -3z"/>
<path d="M7236 2808 c-11 -29 -23 -59 -29 -65 -5 -7 -7 -13 -3 -13 5 0 -18
-68 -56 -170 -5 -14 -10 -27 -10 -30 0 -3 -9 -27 -19 -55 -11 -27 -36 -97 -55
-155 -20 -58 -41 -111 -47 -117 -5 -7 -7 -13 -3 -13 6 0 -51 -167 -64 -185 -9
-13 -7 -55 3 -55 4 0 49 0 100 0 l92 0 33 105 32 105 165 0 164 0 32 -105 32
-105 104 0 c57 0 103 2 103 4 0 2 -7 22 -15 45 -8 22 -12 41 -8 41 3 0 1 6 -5
13 -5 6 -21 46 -35 87 -15 41 -39 111 -56 155 -16 44 -30 83 -30 87 -1 4 -5
16 -8 25 -4 10 -41 115 -83 233 l-75 215 -121 3 -120 3 -18 -53z m198 -297
c31 -101 55 -185 54 -186 -2 -1 -47 0 -100 3 -69 3 -96 8 -91 16 3 6 -3 2 -15
-8 -12 -11 -22 -16 -22 -12 0 4 16 58 35 119 19 62 44 145 56 185 12 40 22 72
24 70 1 -2 28 -86 59 -187z"/>
<path d="M17806 2808 c-11 -29 -23 -59 -29 -65 -5 -7 -7 -13 -3 -13 5 0 -18
-68 -56 -170 -5 -14 -10 -27 -10 -30 0 -3 -9 -27 -19 -55 -11 -27 -36 -97 -55
-155 -20 -58 -41 -111 -47 -117 -5 -7 -7 -13 -3 -13 6 0 -51 -167 -64 -185 -9
-13 -7 -55 3 -55 4 0 49 0 100 0 l92 0 33 105 32 105 165 0 164 0 32 -105 32
-105 104 0 c57 0 103 2 103 4 0 2 -7 22 -15 45 -8 22 -12 41 -8 41 3 0 1 6 -5
13 -5 6 -21 46 -35 87 -15 41 -39 111 -56 155 -16 44 -30 83 -30 87 -1 4 -5
16 -8 25 -4 10 -41 115 -83 233 l-75 215 -121 3 -120 3 -18 -53z m198 -297
c31 -101 55 -185 54 -186 -2 -1 -47 0 -100 3 -69 3 -96 8 -91 16 3 6 -3 2 -15
-8 -12 -11 -22 -16 -22 -12 0 4 16 58 35 119 19 62 44 145 56 185 12 40 22 72
24 70 1 -2 28 -86 59 -187z"/>
<path d="M6139 2846 c-2 -2 -3 -205 -1 -450 l2 -446 159 0 c181 0 278 15 365
56 142 67 227 218 226 399 0 99 -3 121 -13 131 -4 4 -7 16 -7 26 0 24 -34 91
-73 143 -46 61 -137 113 -237 135 -43 9 -412 15 -421 6z m428 -184 c45 -24 77
-59 100 -112 17 -40 31 -220 17 -220 -6 0 -11 -11 -12 -25 -9 -108 -106 -182
-254 -192 l-78 -6 0 224 c0 123 -3 255 -7 293 l-6 68 99 -4 c76 -3 109 -9 141
-26z"/>
<path d="M7918 2843 c-2 -5 -3 -24 -2 -43 1 -19 3 -219 3 -443 l1 -408 91 3
91 3 2 262 c0 145 -2 264 -5 265 -4 2 -10 37 -13 78 -4 41 -4 72 -1 68 4 -3
93 -156 199 -340 l192 -333 124 0 125 0 0 425 c0 234 -1 435 -3 448 -4 21 -9
22 -92 22 l-87 0 3 -212 c3 -117 6 -268 8 -335 1 -67 -1 -120 -6 -117 -4 3 -8
9 -8 15 0 5 -49 95 -110 199 -60 104 -110 193 -110 199 0 5 -4 11 -8 13 -11 4
-132 214 -132 228 0 12 -257 14 -262 3z"/>
<path d="M9270 2847 c-3 -3 -4 -206 -2 -451 l2 -446 100 0 99 0 3 115 c2 63 0
115 -4 115 -5 0 -8 20 -8 44 l0 44 98 4 c130 7 194 29 252 89 69 72 75 81 78
123 2 22 7 48 11 59 7 19 -17 154 -31 172 -44 57 -64 75 -115 100 -58 30 -59
30 -268 33 -116 2 -212 1 -215 -1z m365 -171 c19 -8 41 -28 49 -45 26 -49 18
-145 -10 -134 -9 3 -14 0 -12 -7 6 -26 -49 -52 -121 -58 l-71 -5 0 64 c0 35
-3 94 -7 132 l-6 67 72 0 c39 0 87 -6 106 -14z"/>
<path d="M10059 2846 c-2 -2 -3 -205 -1 -450 l2 -446 102 0 101 0 -4 172 -4
172 43 1 c23 0 48 -2 54 -6 6 -4 57 -81 112 -170 l102 -164 107 -3 c59 -1 107
0 107 4 0 7 -209 314 -227 332 -24 24 -37 56 -25 60 30 10 94 66 124 109 31
45 33 54 34 131 0 45 -3 82 -6 82 -3 0 -12 17 -19 38 -23 63 -98 112 -200 132
-51 10 -393 15 -402 6z m346 -166 c54 -12 85 -50 85 -103 0 -78 -44 -111 -164
-123 l-66 -7 0 54 c0 30 -3 84 -7 122 l-6 67 59 0 c32 0 77 -5 99 -10z"/>
<path d="M11889 2846 c-2 -2 -3 -205 -1 -450 l2 -446 159 0 c181 0 278 15 365
56 142 67 227 218 226 399 0 99 -3 121 -13 131 -4 4 -7 16 -7 26 0 24 -34 91
-73 143 -46 61 -137 113 -237 135 -43 9 -412 15 -421 6z m428 -184 c45 -24 77
-59 100 -112 17 -40 31 -220 17 -220 -6 0 -11 -11 -12 -25 -9 -108 -106 -182
-254 -192 l-78 -6 0 224 c0 123 -3 255 -7 293 l-6 68 99 -4 c76 -3 109 -9 141
-26z"/>
<path d="M12817 2598 c5 -422 6 -427 33 -482 56 -111 177 -176 328 -176 189 0
313 78 363 228 21 63 23 85 24 362 1 162 -1 301 -3 308 -3 8 -33 12 -103 12
l-99 0 0 -310 c0 -285 -2 -314 -19 -348 -23 -45 -46 -66 -90 -81 -102 -34
-213 18 -229 107 -2 15 -5 158 -7 317 -1 160 -3 296 -4 303 -1 9 -28 12 -99
12 l-98 0 3 -252z"/>
<path d="M13768 2843 c-2 -5 -3 -24 -2 -43 1 -19 3 -218 3 -442 l1 -408 99 0
100 0 3 120 c2 66 0 120 -4 120 -5 0 -8 18 -8 39 0 35 5 43 42 70 l43 31 22
-37 c12 -21 64 -105 116 -188 l94 -150 113 -3 113 -3 -19 28 c-10 15 -23 37
-29 48 -6 11 -35 58 -66 105 -30 47 -64 101 -75 120 -10 19 -22 39 -27 45 -4
5 -30 43 -58 83 l-50 72 108 137 c59 76 129 162 156 192 26 30 47 58 47 63 0
4 -49 8 -108 8 l-108 0 -36 -47 c-20 -27 -45 -57 -55 -68 -10 -11 -30 -36 -45
-57 -15 -20 -34 -42 -41 -50 -7 -7 -38 -48 -70 -92 l-57 -79 0 197 0 196 -99
0 c-55 0 -101 -3 -103 -7z"/>
<path d="M14508 2809 c-2 -22 -1 -42 2 -45 3 -3 5 -20 5 -37 l0 -32 123 -3
122 -3 0 -370 0 -370 98 3 97 3 0 310 c0 171 4 316 8 323 5 7 4 12 -2 12 -6 0
-11 20 -11 45 l0 45 125 0 125 0 0 80 0 80 -344 0 -344 0 -4 -41z"/>
<path d="M15328 2843 c-2 -5 -3 -24 -2 -43 1 -19 3 -218 3 -442 l1 -408 100 0
100 0 0 450 0 450 -99 0 c-55 0 -101 -3 -103 -7z"/>
<path d="M15637 2843 c-4 -3 -2 -11 3 -18 5 -6 11 -21 13 -32 2 -12 8 -27 13
-35 10 -12 121 -336 231 -671 l45 -138 107 3 106 3 40 120 c159 472 220 647
241 697 13 32 24 62 24 68 0 6 -38 10 -100 10 l-99 0 -71 -222 c-39 -123 -76
-239 -82 -258 -6 -19 -14 -40 -19 -46 -5 -6 -6 -14 -2 -17 3 -4 1 -13 -5 -20
-7 -8 -9 -17 -5 -20 3 -4 2 -7 -4 -7 -6 0 -9 -9 -6 -20 3 -12 0 -20 -6 -20 -7
0 -9 -5 -6 -10 3 -6 3 -20 -1 -33 -6 -17 -12 -2 -30 67 -13 50 -20 94 -18 98
3 4 1 8 -4 8 -5 0 -12 10 -15 23 -3 12 -13 47 -22 77 -9 30 -17 60 -19 65 -2
6 -8 22 -14 36 -10 25 -32 101 -36 124 -1 6 -5 16 -9 23 -5 6 -5 17 -2 22 3 6
2 10 -2 10 -5 0 -17 27 -26 60 l-18 60 -98 0 c-54 0 -101 -3 -104 -7z"/>
<path d="M16568 2843 c-2 -5 -3 -24 -2 -43 1 -19 3 -218 3 -442 l1 -408 100 0
100 0 0 450 0 450 -99 0 c-55 0 -101 -3 -103 -7z"/>
<path d="M16888 2809 c-2 -22 -1 -42 3 -44 3 -3 5 -20 4 -40 l-1 -35 123 0
123 0 0 -370 0 -371 98 3 97 3 0 310 c0 171 4 316 8 323 5 7 4 12 -2 12 -6 0
-11 20 -11 45 l0 45 125 0 125 0 0 80 0 80 -344 0 -344 0 -4 -41z"/>
<path d="M2245 2326 c-69 -20 -85 -27 -136 -61 -79 -52 -145 -151 -169 -253
-11 -49 -11 -211 0 -222 3 -3 16 -30 30 -60 31 -67 118 -157 185 -190 28 -14
52 -27 55 -30 3 -3 16 -6 30 -7 14 -2 50 -6 81 -9 33 -4 77 -2 107 5 27 7 58
14 68 16 11 2 21 4 24 5 3 1 8 2 13 1 4 0 7 4 7 9 0 6 5 10 11 10 20 0 139
103 139 121 0 5 7 12 15 15 8 4 12 10 9 15 -3 5 -1 9 4 9 4 0 19 33 33 73 75
226 -28 452 -245 539 -66 26 -194 33 -261 14z"/>
<path d="M12110 1149 c-74 -9 -168 -53 -221 -102 -89 -84 -134 -223 -124 -380
17 -254 105 -383 294 -427 68 -16 215 -9 299 15 l62 18 0 83 c0 46 -1 84 -2
84 -2 0 -31 -9 -66 -19 -194 -59 -313 -24 -362 107 -33 86 -34 257 -2 327 29
63 56 93 107 116 55 25 127 23 210 -6 39 -14 73 -25 76 -25 3 0 16 23 28 50
12 28 26 50 30 50 14 0 5 52 -11 61 -33 18 -144 47 -198 51 -30 3 -84 1 -120
-3z"/>
<path d="M7115 1013 c-26 -76 -52 -144 -58 -150 -5 -7 -7 -13 -3 -13 5 0 -17
-67 -54 -165 -4 -11 -9 -24 -10 -30 -2 -9 -41 -120 -60 -170 -4 -11 -8 -22 -8
-25 0 -3 -10 -30 -22 -60 -30 -75 -52 -149 -46 -158 2 -4 49 -6 103 -4 l100 3
23 82 c40 140 18 127 206 127 l163 0 32 -105 32 -105 104 0 c56 0 103 1 103 3
0 8 -33 104 -59 175 -17 45 -28 82 -25 82 4 0 2 6 -3 13 -9 11 -111 290 -117
320 -2 7 -8 23 -13 37 -14 34 -63 170 -62 173 0 1 -4 14 -10 30 -34 86 -17 77
-149 77 l-119 0 -48 -137z m229 -210 c31 -101 56 -184 56 -185 0 -3 -230 -4
-230 -2 0 0 25 83 55 184 30 101 55 186 55 188 0 17 14 -23 64 -185z"/>
<path d="M9915 1013 c-26 -76 -52 -144 -58 -150 -5 -7 -7 -13 -3 -13 5 0 -17
-67 -54 -165 -4 -11 -9 -24 -10 -30 -2 -9 -41 -120 -60 -170 -4 -11 -8 -22 -8
-25 0 -3 -10 -30 -22 -60 -30 -75 -52 -149 -46 -158 2 -4 49 -6 103 -4 l100 3
23 82 c40 140 18 127 206 127 l163 0 32 -105 32 -105 104 0 c56 0 103 1 103 3
0 8 -33 104 -59 175 -17 45 -28 82 -25 82 4 0 2 6 -3 13 -9 11 -111 290 -117
320 -2 7 -8 23 -13 37 -14 34 -63 170 -62 173 0 1 -4 14 -10 30 -34 86 -17 77
-149 77 l-119 0 -48 -137z m229 -210 c31 -101 56 -184 56 -185 0 -3 -230 -4
-230 -2 0 0 25 83 55 184 30 101 55 186 55 188 0 17 14 -23 64 -185z"/>
<path d="M11105 1013 c-26 -76 -52 -144 -58 -150 -5 -7 -7 -13 -3 -13 5 0 -17
-67 -54 -165 -4 -11 -9 -24 -10 -30 -2 -9 -41 -120 -60 -170 -4 -11 -8 -22 -8
-25 0 -3 -10 -30 -22 -60 -30 -75 -52 -149 -46 -158 2 -4 49 -6 103 -4 l100 3
23 82 c40 140 18 127 206 127 l163 0 32 -105 32 -105 104 0 c56 0 103 1 103 3
0 8 -33 104 -59 175 -17 45 -28 82 -25 82 4 0 2 6 -3 13 -9 11 -111 290 -117
320 -2 7 -8 23 -13 37 -14 34 -63 170 -62 173 0 1 -4 14 -10 30 -34 86 -17 77
-149 77 l-119 0 -48 -137z m229 -210 c31 -101 56 -184 56 -185 0 -3 -230 -4
-230 -2 0 0 25 83 55 184 30 101 55 186 55 188 0 17 14 -23 64 -185z"/>
<path d="M6140 689 l0 -451 223 4 c198 3 228 6 275 25 78 32 116 65 149 132
26 53 28 65 23 127 -9 92 -37 136 -106 165 l-52 22 41 22 c58 30 100 103 98
170 -2 69 -3 74 -31 123 -17 31 -38 49 -74 67 -76 37 -139 45 -352 45 l-194 0
0 -451z m395 277 c37 -16 55 -42 55 -81 0 -67 -49 -95 -170 -95 l-80 0 0 28
c0 15 -3 57 -7 95 l-6 67 87 0 c52 0 100 -6 121 -14z m9 -350 c98 -41 83 -176
-22 -206 -20 -5 -70 -10 -109 -10 l-73 0 0 48 c0 26 -3 77 -7 115 l-6 67 92 0
c56 0 105 -5 125 -14z"/>
<path d="M7830 690 l0 -450 90 0 90 0 1 33 c0 17 0 131 0 252 0 158 4 222 12
227 8 5 7 8 -4 8 -9 0 -16 6 -16 13 0 6 -3 44 -7 82 -5 44 -4 66 2 60 5 -5 91
-154 192 -330 100 -176 187 -326 193 -332 6 -9 46 -13 131 -13 l121 0 -1 438
c-1 240 -2 443 -3 450 -1 8 -26 12 -90 12 l-88 0 3 -212 c3 -117 6 -268 8
-335 1 -68 2 -123 1 -123 -2 0 -15 26 -31 58 -16 31 -31 59 -35 62 -3 3 -19
30 -35 60 -16 30 -31 57 -34 60 -12 11 -210 360 -210 370 0 5 -4 10 -8 10 -5
0 -14 11 -20 25 -11 25 -13 25 -137 25 l-125 0 0 -450z"/>
<path d="M8850 690 l0 -451 173 2 c95 1 199 7 233 14 87 19 166 59 219 112 42
42 95 127 95 153 0 6 7 27 17 48 12 27 16 62 14 127 -3 153 -36 241 -121 324
-100 98 -182 120 -442 121 l-188 0 0 -450z m427 262 c46 -24 77 -59 100 -112
17 -41 29 -180 18 -207 -5 -10 -9 -22 -10 -28 -1 -5 -3 -14 -5 -20 -1 -5 -3
-14 -4 -20 -17 -91 -112 -153 -247 -162 l-79 -6 0 224 c0 123 -3 255 -7 293
l-6 68 99 -4 c76 -3 109 -9 141 -26z"/>
<path d="M12600 690 l0 -450 262 2 263 3 0 60 c1 103 15 95 -167 95 l-159 0 2
65 c1 36 -1 68 -4 72 -4 3 -7 26 -7 50 l0 44 158 -3 157 -3 -2 60 c0 33 -2 70
-2 83 -1 22 -2 22 -151 22 l-150 0 0 28 c0 15 -3 58 -7 95 l-6 68 166 -3 c189
-3 173 -12 172 92 l0 65 -262 3 -263 2 0 -450z"/>
<path d="M13300 690 l0 -450 101 0 102 0 -5 195 -6 195 179 0 179 0 0 -195 0
-195 95 0 95 0 0 450 0 450 -100 0 c-55 0 -100 -3 -101 -7 -4 -45 -3 -83 4
-83 4 0 7 -58 7 -130 l0 -130 -175 0 -175 0 0 175 0 175 -100 0 -100 0 0 -450z"/>
<path d="M162 578 c-20 -26 -25 -87 -23 -288 2 -281 -2 -262 60 -280 50 -14
66 9 69 104 4 82 5 84 42 120 38 36 39 36 57 17 10 -11 27 -37 38 -58 11 -21
25 -42 31 -48 6 -5 20 -26 30 -45 46 -87 98 -112 149 -72 23 18 23 19 6 58
-10 21 -54 91 -98 154 l-81 114 77 77 c80 80 93 109 65 140 -36 40 -63 26
-180 -91 -60 -60 -110 -114 -112 -120 -2 -5 -8 -10 -13 -10 -5 0 -9 45 -9 100
0 87 -3 103 -20 120 -22 22 -72 27 -88 8z"/>
<path d="M1909 572 c-22 -19 -22 -22 -23 -259 -1 -133 2 -254 6 -271 7 -25 14
-31 44 -34 59 -7 64 10 65 207 0 112 3 162 9 148 5 -13 13 -23 19 -23 5 0 11
-8 15 -17 5 -18 26 -53 36 -63 3 -3 11 -14 18 -25 7 -11 21 -33 32 -50 10 -16
20 -34 22 -40 2 -5 13 -20 26 -34 12 -13 22 -28 22 -34 0 -13 44 -61 59 -65
101 -22 103 -16 103 265 -1 125 -1 240 -1 255 -2 53 -60 77 -95 39 -16 -17
-18 -41 -16 -192 l1 -173 -112 170 c-61 93 -120 179 -132 192 -25 27 -67 29
-98 4z"/>
<path d="M2630 567 c-23 -24 -46 -77 -154 -357 -62 -162 -63 -186 -12 -195 40
-8 73 0 73 18 0 6 8 30 18 52 10 22 19 45 19 50 1 6 47 11 112 13 l111 3 22
-60 c30 -84 63 -105 106 -68 35 30 37 53 9 109 -14 27 -24 49 -23 50 1 4 -5
19 -85 213 -36 89 -75 168 -87 178 -30 24 -82 22 -109 -6z m76 -184 c-3 -3 1
-12 9 -20 13 -13 20 -41 16 -65 0 -5 3 -8 8 -8 5 0 11 -11 13 -25 5 -25 5 -25
-68 -25 -43 0 -74 4 -74 10 0 6 5 10 12 10 6 0 9 3 5 6 -7 7 43 147 54 152 4
2 6 11 3 20 -2 9 3 2 11 -17 9 -18 14 -36 11 -38z"/>
<path d="M3047 577 c-16 -11 -18 -37 -18 -273 0 -143 3 -268 6 -276 4 -9 17
-18 29 -20 61 -12 94 36 91 130 -3 54 -1 59 38 99 44 46 43 46 73 -17 4 -8 10
-17 14 -20 3 -3 32 -45 64 -93 60 -91 62 -93 108 -101 31 -5 58 23 58 60 0 11
-42 81 -93 154 l-94 134 79 80 c80 83 92 110 62 140 -8 9 -28 16 -43 16 -26 0
-82 -50 -230 -207 -17 -18 -32 -33 -34 -33 -1 0 -2 42 -3 94 -1 110 -16 146
-62 146 -16 0 -36 -6 -45 -13z"/>
<path d="M737 562 c-15 -16 -17 -50 -17 -264 0 -222 2 -246 18 -261 15 -14 48
-16 207 -17 183 -2 190 -1 204 19 11 17 11 27 3 46 -12 25 -12 25 -162 25
l-150 0 0 75 0 75 125 0 c112 0 127 2 145 20 24 24 25 43 4 64 -12 13 -41 16
-145 16 l-129 0 0 65 0 64 146 3 c124 3 148 6 157 20 8 12 8 24 -1 42 l-12 26
-188 0 c-170 0 -191 -2 -205 -18z"/>
<path d="M1248 558 l-23 -23 5 -245 c3 -136 9 -252 15 -262 12 -19 41 -25 72
-14 28 9 36 57 35 208 0 75 3 120 10 124 7 5 9 0 6 -14 -4 -12 -2 -25 4 -28 5
-3 7 -12 4 -19 -2 -7 0 -17 5 -22 5 -5 10 -22 13 -38 2 -17 6 -37 9 -45 4 -8
13 -44 21 -78 8 -36 23 -70 33 -78 18 -13 21 -15 46 -18 18 -3 51 14 62 33 8
15 84 300 87 328 1 7 4 10 7 7 3 -3 7 -72 7 -152 2 -191 1 -188 19 -205 15
-16 24 -16 62 -3 34 11 39 46 38 296 -1 274 0 270 -101 270 -51 0 -67 -4 -83
-21 -11 -12 -17 -27 -15 -34 3 -7 0 -16 -5 -20 -6 -3 -9 -11 -6 -16 4 -5 1 -9
-5 -9 -6 0 -8 -4 -5 -10 5 -8 -24 -136 -42 -180 -7 -17 -9 -27 -12 -55 -1 -11
-13 18 -27 65 -13 47 -22 91 -19 98 2 6 -1 12 -7 12 -6 0 -8 3 -5 7 4 3 3 11
-3 18 -5 6 -11 27 -14 47 -5 39 -22 79 -40 90 -6 4 -37 8 -68 8 -46 0 -62 -4
-80 -22z"/>
<path d="M3615 560 c-17 -18 -19 -43 -20 -257 -1 -311 -23 -284 232 -284 204
0 225 5 215 46 -10 43 -18 45 -172 45 l-147 0 -1 75 -1 75 122 0 c130 0 167
11 167 49 0 40 -29 50 -160 53 l-125 3 -2 63 -1 63 136 -1 c76 -1 145 1 155 5
20 8 23 55 5 73 -8 8 -67 12 -198 12 -175 0 -188 -1 -205 -20z"/>
<path d="M4133 561 c-14 -17 -17 -49 -16 -249 0 -238 6 -301 26 -303 38 -5 64
3 83 24 18 21 20 36 19 121 l-1 97 35 -2 c20 -2 44 -6 53 -11 20 -9 65 -66 70
-87 2 -8 11 -23 21 -33 9 -10 17 -25 17 -33 0 -8 5 -15 11 -15 5 0 8 -4 5 -8
-8 -14 52 -56 81 -57 32 0 50 13 55 42 4 27 -48 125 -96 179 l-38 45 40 17
c36 15 73 57 78 87 11 64 10 75 -10 115 -15 31 -35 51 -66 67 -40 21 -56 23
-197 23 -139 0 -155 -2 -170 -19z m278 -85 c24 -7 49 -41 49 -66 0 -5 -11 -20
-25 -34 -25 -25 -99 -41 -160 -34 -29 3 -29 3 -30 74 l-1 72 70 -2 c39 -2 83
-6 97 -10z"/>
</g>
</svg>
